# https://github.com/mikedh/trimesh

o CH_Vex_Torso_Undersuit
v -0.09000000 -0.14000000 0.84500000 0.25098039 0.16470588 0.38823529
v 0.09000000 -0.14000000 0.84500000 0.25098039 0.16470588 0.38823529
v 0.09000000 0.14000000 0.84500000 0.25098039 0.16470588 0.38823529
v -0.09000000 0.14000000 0.84500000 0.25098039 0.16470588 0.38823529
v -0.12000000 -0.23000000 1.39500000 0.25098039 0.16470588 0.38823529
v 0.12000000 -0.23000000 1.39500000 0.25098039 0.16470588 0.38823529
v 0.12000000 0.23000000 1.39500000 0.25098039 0.16470588 0.38823529
v -0.12000000 0.23000000 1.39500000 0.25098039 0.16470588 0.38823529
f 1 2 3
f 1 3 4
f 5 7 6
f 5 8 7
f 1 5 6
f 1 6 2
f 2 6 7
f 2 7 3
f 3 7 8
f 3 8 4
f 4 8 5
f 4 5 1

o CH_Vex_Cropped_Jacket
v -0.10000000 -0.16500000 0.99000000 0.10196078 0.12156863 0.22745098
v 0.11000000 -0.16500000 0.99000000 0.10196078 0.12156863 0.22745098
v 0.11000000 0.16500000 0.99000000 0.10196078 0.12156863 0.22745098
v -0.10000000 0.16500000 0.99000000 0.10196078 0.12156863 0.22745098
v -0.13000000 -0.25000000 1.39000000 0.10196078 0.12156863 0.22745098
v 0.14000000 -0.25000000 1.39000000 0.10196078 0.12156863 0.22745098
v 0.14000000 0.25000000 1.39000000 0.10196078 0.12156863 0.22745098
v -0.13000000 0.25000000 1.39000000 0.10196078 0.12156863 0.22745098
f 9 10 11
f 9 11 12
f 13 15 14
f 13 16 15
f 9 13 14
f 9 14 10
f 10 14 15
f 10 15 11
f 11 15 16
f 11 16 12
f 12 16 13
f 12 13 9

o CH_Vex_Pelvis
v -0.11000000 -0.15000000 0.75000000 0.25098039 0.16470588 0.38823529
v -0.11000000 -0.15000000 0.91000000 0.25098039 0.16470588 0.38823529
v -0.11000000 0.15000000 0.75000000 0.25098039 0.16470588 0.38823529
v -0.11000000 0.15000000 0.91000000 0.25098039 0.16470588 0.38823529
v 0.11000000 -0.15000000 0.75000000 0.25098039 0.16470588 0.38823529
v 0.11000000 -0.15000000 0.91000000 0.25098039 0.16470588 0.38823529
v 0.11000000 0.15000000 0.75000000 0.25098039 0.16470588 0.38823529
v 0.11000000 0.15000000 0.91000000 0.25098039 0.16470588 0.38823529
f 18 20 17
f 21 18 17
f 17 20 19
f 19 21 17
f 18 24 20
f 22 18 21
f 22 24 18
f 20 24 19
f 23 21 19
f 19 24 23
f 23 22 21
f 24 22 23

o CH_Vex_Belt
v -0.12500000 -0.18000000 0.90250000 0.85490196 0.67058824 0.29411765
v -0.12500000 -0.18000000 0.95750000 0.85490196 0.67058824 0.29411765
v -0.12500000 0.18000000 0.90250000 0.85490196 0.67058824 0.29411765
v -0.12500000 0.18000000 0.95750000 0.85490196 0.67058824 0.29411765
v 0.12500000 -0.18000000 0.90250000 0.85490196 0.67058824 0.29411765
v 0.12500000 -0.18000000 0.95750000 0.85490196 0.67058824 0.29411765
v 0.12500000 0.18000000 0.90250000 0.85490196 0.67058824 0.29411765
v 0.12500000 0.18000000 0.95750000 0.85490196 0.67058824 0.29411765
f 26 28 25
f 29 26 25
f 25 28 27
f 27 29 25
f 26 32 28
f 30 26 29
f 30 32 26
f 28 32 27
f 31 29 27
f 27 32 31
f 31 30 29
f 32 30 31

o CH_Vex_Head_DarkFace
v -0.03623101 0.12334437 1.56000000 0.12941176 0.13333333 0.15686275
v 0.11623101 0.12334437 1.56000000 0.12941176 0.13333333 0.15686275
v -0.03623101 -0.12334437 1.56000000 0.12941176 0.13333333 0.15686275
v 0.11623101 -0.12334437 1.56000000 0.12941176 0.13333333 0.15686275
v 0.04000000 -0.07623101 1.71311715 0.12941176 0.13333333 0.15686275
v 0.04000000 0.07623101 1.71311715 0.12941176 0.13333333 0.15686275
v 0.04000000 -0.07623101 1.40688285 0.12941176 0.13333333 0.15686275
v 0.04000000 0.07623101 1.40688285 0.12941176 0.13333333 0.15686275
v 0.16334437 0.00000000 1.46536840 0.12941176 0.13333333 0.15686275
v 0.16334437 0.00000000 1.65463160 0.12941176 0.13333333 0.15686275
v -0.08334437 0.00000000 1.46536840 0.12941176 0.13333333 0.15686275
v -0.08334437 0.00000000 1.65463160 0.12941176 0.13333333 0.15686275
v 0.04000000 0.14500000 1.56000000 0.12941176 0.13333333 0.15686275
v 0.04000000 -0.14500000 1.56000000 0.12941176 0.13333333 0.15686275
v -0.00480746 -0.11730746 1.65000000 0.12941176 0.13333333 0.15686275
v 0.08480746 -0.11730746 1.65000000 0.12941176 0.13333333 0.15686275
v -0.00480746 0.11730746 1.65000000 0.12941176 0.13333333 0.15686275
v 0.08480746 0.11730746 1.65000000 0.12941176 0.13333333 0.15686275
v 0.04000000 0.00000000 1.74000000 0.12941176 0.13333333 0.15686275
v -0.00480746 -0.11730746 1.47000000 0.12941176 0.13333333 0.15686275
v 0.08480746 -0.11730746 1.47000000 0.12941176 0.13333333 0.15686275
v -0.00480746 0.11730746 1.47000000 0.12941176 0.13333333 0.15686275
v 0.08480746 0.11730746 1.47000000 0.12941176 0.13333333 0.15686275
v 0.04000000 0.00000000 1.38000000 0.12941176 0.13333333 0.15686275
v 0.15730746 0.07250000 1.50437694 0.12941176 0.13333333 0.15686275
v 0.15730746 -0.07250000 1.50437694 0.12941176 0.13333333 0.15686275
v 0.11250000 -0.04480746 1.41437694 0.12941176 0.13333333 0.15686275
v 0.11250000 0.04480746 1.41437694 0.12941176 0.13333333 0.15686275
v 0.15730746 0.07250000 1.61562306 0.12941176 0.13333333 0.15686275
v 0.15730746 -0.07250000 1.61562306 0.12941176 0.13333333 0.15686275
v 0.11250000 -0.04480746 1.70562306 0.12941176 0.13333333 0.15686275
v 0.11250000 0.04480746 1.70562306 0.12941176 0.13333333 0.15686275
v 0.18500000 0.00000000 1.56000000 0.12941176 0.13333333 0.15686275
v -0.07730746 0.07250000 1.50437694 0.12941176 0.13333333 0.15686275
v -0.07730746 -0.07250000 1.50437694 0.12941176 0.13333333 0.15686275
v -0.03250000 -0.04480746 1.41437694 0.12941176 0.13333333 0.15686275
v -0.03250000 0.04480746 1.41437694 0.12941176 0.13333333 0.15686275
v -0.07730746 0.07250000 1.61562306 0.12941176 0.13333333 0.15686275
v -0.07730746 -0.07250000 1.61562306 0.12941176 0.13333333 0.15686275
v -0.03250000 -0.04480746 1.70562306 0.12941176 0.13333333 0.15686275
v -0.03250000 0.04480746 1.70562306 0.12941176 0.13333333 0.15686275
v -0.10500000 0.00000000 1.56000000 0.12941176 0.13333333 0.15686275
f 33 70 49
f 70 44 73
f 49 73 38
f 70 73 49
f 33 49 45
f 49 38 50
f 45 50 34
f 49 50 45
f 33 45 54
f 45 34 55
f 54 55 40
f 45 55 54
f 33 54 66
f 54 40 69
f 66 69 43
f 54 69 66
f 33 66 70
f 66 43 74
f 70 74 44
f 66 74 70
f 34 50 61
f 50 38 64
f 61 64 42
f 50 64 61
f 38 73 51
f 73 44 72
f 51 72 37
f 73 72 51
f 44 74 71
f 74 43 67
f 71 67 35
f 74 67 71
f 43 69 68
f 69 40 56
f 68 56 39
f 69 56 68
f 40 55 60
f 55 34 57
f 60 57 41
f 55 57 60
f 36 62 48
f 62 42 63
f 48 63 37
f 62 63 48
f 36 48 46
f 48 37 47
f 46 47 35
f 48 47 46
f 36 46 53
f 46 35 52
f 53 52 39
f 46 52 53
f 36 53 58
f 53 39 59
f 58 59 41
f 53 59 58
f 36 58 62
f 58 41 65
f 62 65 42
f 58 65 62
f 37 63 51
f 63 42 64
f 51 64 38
f 63 64 51
f 35 47 71
f 47 37 72
f 71 72 44
f 47 72 71
f 39 52 68
f 52 35 67
f 68 67 43
f 52 67 68
f 41 59 60
f 59 39 56
f 60 56 40
f 59 56 60
f 42 65 61
f 65 41 57
f 61 57 34
f 65 57 61

o CH_Vex_Hood_Cowl
v -0.08488891 0.15311715 1.57000000 0.10196078 0.12156863 0.22745098
v 0.11488891 0.15311715 1.57000000 0.10196078 0.12156863 0.22745098
v -0.08488891 -0.15311715 1.57000000 0.10196078 0.12156863 0.22745098
v 0.11488891 -0.15311715 1.57000000 0.10196078 0.12156863 0.22745098
v 0.01500000 -0.09463160 1.75288992 0.10196078 0.12156863 0.22745098
v 0.01500000 0.09463160 1.75288992 0.10196078 0.12156863 0.22745098
v 0.01500000 -0.09463160 1.38711008 0.10196078 0.12156863 0.22745098
v 0.01500000 0.09463160 1.38711008 0.10196078 0.12156863 0.22745098
v 0.17662365 0.00000000 1.45696781 0.10196078 0.12156863 0.22745098
v 0.17662365 0.00000000 1.68303219 0.10196078 0.12156863 0.22745098
v -0.14662365 0.00000000 1.45696781 0.10196078 0.12156863 0.22745098
v -0.14662365 0.00000000 1.68303219 0.10196078 0.12156863 0.22745098
v 0.01500000 0.18000000 1.57000000 0.10196078 0.12156863 0.22745098
v 0.01500000 -0.18000000 1.57000000 0.10196078 0.12156863 0.22745098
v -0.04371323 -0.14562306 1.67750000 0.10196078 0.12156863 0.22745098
v 0.07371323 -0.14562306 1.67750000 0.10196078 0.12156863 0.22745098
v -0.04371323 0.14562306 1.67750000 0.10196078 0.12156863 0.22745098
v 0.07371323 0.14562306 1.67750000 0.10196078 0.12156863 0.22745098
v 0.01500000 0.00000000 1.78500000 0.10196078 0.12156863 0.22745098
v -0.04371323 -0.14562306 1.46250000 0.10196078 0.12156863 0.22745098
v 0.07371323 -0.14562306 1.46250000 0.10196078 0.12156863 0.22745098
v -0.04371323 0.14562306 1.46250000 0.10196078 0.12156863 0.22745098
v 0.07371323 0.14562306 1.46250000 0.10196078 0.12156863 0.22745098
v 0.01500000 0.00000000 1.35500000 0.10196078 0.12156863 0.22745098
v 0.16871323 0.09000000 1.50356135 0.10196078 0.12156863 0.22745098
v 0.16871323 -0.09000000 1.50356135 0.10196078 0.12156863 0.22745098
v 0.11000000 -0.05562306 1.39606135 0.10196078 0.12156863 0.22745098
v 0.11000000 0.05562306 1.39606135 0.10196078 0.12156863 0.22745098
v 0.16871323 0.09000000 1.63643865 0.10196078 0.12156863 0.22745098
v 0.16871323 -0.09000000 1.63643865 0.10196078 0.12156863 0.22745098
v 0.11000000 -0.05562306 1.74393865 0.10196078 0.12156863 0.22745098
v 0.11000000 0.05562306 1.74393865 0.10196078 0.12156863 0.22745098
v 0.20500000 0.00000000 1.57000000 0.10196078 0.12156863 0.22745098
v -0.13871323 0.09000000 1.50356135 0.10196078 0.12156863 0.22745098
v -0.13871323 -0.09000000 1.50356135 0.10196078 0.12156863 0.22745098
v -0.08000000 -0.05562306 1.39606135 0.10196078 0.12156863 0.22745098
v -0.08000000 0.05562306 1.39606135 0.10196078 0.12156863 0.22745098
v -0.13871323 0.09000000 1.63643865 0.10196078 0.12156863 0.22745098
v -0.13871323 -0.09000000 1.63643865 0.10196078 0.12156863 0.22745098
v -0.08000000 -0.05562306 1.74393865 0.10196078 0.12156863 0.22745098
v -0.08000000 0.05562306 1.74393865 0.10196078 0.12156863 0.22745098
v -0.17500000 0.00000000 1.57000000 0.10196078 0.12156863 0.22745098
f 75 112 91
f 112 86 115
f 91 115 80
f 112 115 91
f 75 91 87
f 91 80 92
f 87 92 76
f 91 92 87
f 75 87 96
f 87 76 97
f 96 97 82
f 87 97 96
f 75 96 108
f 96 82 111
f 108 111 85
f 96 111 108
f 75 108 112
f 108 85 116
f 112 116 86
f 108 116 112
f 76 92 103
f 92 80 106
f 103 106 84
f 92 106 103
f 80 115 93
f 115 86 114
f 93 114 79
f 115 114 93
f 86 116 113
f 116 85 109
f 113 109 77
f 116 109 113
f 85 111 110
f 111 82 98
f 110 98 81
f 111 98 110
f 82 97 102
f 97 76 99
f 102 99 83
f 97 99 102
f 78 104 90
f 104 84 105
f 90 105 79
f 104 105 90
f 78 90 88
f 90 79 89
f 88 89 77
f 90 89 88
f 78 88 95
f 88 77 94
f 95 94 81
f 88 94 95
f 78 95 100
f 95 81 101
f 100 101 83
f 95 101 100
f 78 100 104
f 100 83 107
f 104 107 84
f 100 107 104
f 79 105 93
f 105 84 106
f 93 106 80
f 105 106 93
f 77 89 113
f 89 79 114
f 113 114 86
f 89 114 113
f 81 94 110
f 94 77 109
f 110 109 85
f 94 109 110
f 83 101 102
f 101 81 98
f 102 98 82
f 101 98 102
f 84 107 103
f 107 83 99
f 103 99 76
f 107 99 103

o CH_Vex_Mask_SidePanel_L
v 0.03500000 -0.19250000 1.54000000 0.12941176 0.13333333 0.15686275
v 0.03500000 -0.19250000 1.62000000 0.12941176 0.13333333 0.15686275
v 0.03500000 -0.17750000 1.54000000 0.12941176 0.13333333 0.15686275
v 0.03500000 -0.17750000 1.62000000 0.12941176 0.13333333 0.15686275
v 0.15500000 -0.19250000 1.54000000 0.12941176 0.13333333 0.15686275
v 0.15500000 -0.19250000 1.62000000 0.12941176 0.13333333 0.15686275
v 0.15500000 -0.17750000 1.54000000 0.12941176 0.13333333 0.15686275
v 0.15500000 -0.17750000 1.62000000 0.12941176 0.13333333 0.15686275
f 118 120 117
f 121 118 117
f 117 120 119
f 119 121 117
f 118 124 120
f 122 118 121
f 122 124 118
f 120 124 119
f 123 121 119
f 119 124 123
f 123 122 121
f 124 122 123

o CH_Vex_Mask_SidePanel_R
v 0.03500000 0.17750000 1.54000000 0.12941176 0.13333333 0.15686275
v 0.03500000 0.17750000 1.62000000 0.12941176 0.13333333 0.15686275
v 0.03500000 0.19250000 1.54000000 0.12941176 0.13333333 0.15686275
v 0.03500000 0.19250000 1.62000000 0.12941176 0.13333333 0.15686275
v 0.15500000 0.17750000 1.54000000 0.12941176 0.13333333 0.15686275
v 0.15500000 0.17750000 1.62000000 0.12941176 0.13333333 0.15686275
v 0.15500000 0.19250000 1.54000000 0.12941176 0.13333333 0.15686275
v 0.15500000 0.19250000 1.62000000 0.12941176 0.13333333 0.15686275
f 126 128 125
f 129 126 125
f 125 128 127
f 127 129 125
f 126 132 128
f 130 126 129
f 130 132 126
f 128 132 127
f 131 129 127
f 127 132 131
f 131 130 129
f 132 130 131

o CH_Vex_Eye_Glow_L
v 0.09250000 -0.20100000 1.59900000 0.26274510 0.87450980 1.00000000
v 0.09250000 -0.20100000 1.61100000 0.26274510 0.87450980 1.00000000
v 0.09250000 -0.18900000 1.59900000 0.26274510 0.87450980 1.00000000
v 0.09250000 -0.18900000 1.61100000 0.26274510 0.87450980 1.00000000
v 0.14750000 -0.20100000 1.59900000 0.26274510 0.87450980 1.00000000
v 0.14750000 -0.20100000 1.61100000 0.26274510 0.87450980 1.00000000
v 0.14750000 -0.18900000 1.59900000 0.26274510 0.87450980 1.00000000
v 0.14750000 -0.18900000 1.61100000 0.26274510 0.87450980 1.00000000
f 134 136 133
f 137 134 133
f 133 136 135
f 135 137 133
f 134 140 136
f 138 134 137
f 138 140 134
f 136 140 135
f 139 137 135
f 135 140 139
f 139 138 137
f 140 138 139

o CH_Vex_Eye_Glow_R
v 0.09250000 0.18900000 1.59900000 0.26274510 0.87450980 1.00000000
v 0.09250000 0.18900000 1.61100000 0.26274510 0.87450980 1.00000000
v 0.09250000 0.20100000 1.59900000 0.26274510 0.87450980 1.00000000
v 0.09250000 0.20100000 1.61100000 0.26274510 0.87450980 1.00000000
v 0.14750000 0.18900000 1.59900000 0.26274510 0.87450980 1.00000000
v 0.14750000 0.18900000 1.61100000 0.26274510 0.87450980 1.00000000
v 0.14750000 0.20100000 1.59900000 0.26274510 0.87450980 1.00000000
v 0.14750000 0.20100000 1.61100000 0.26274510 0.87450980 1.00000000
f 142 144 141
f 145 142 141
f 141 144 143
f 143 145 141
f 142 148 144
f 146 142 145
f 146 148 142
f 144 148 143
f 147 145 143
f 143 148 147
f 147 146 145
f 148 146 147

o CH_Vex_Hood_BackPoint
v -0.10000000 0.00000000 1.63000000 0.10196078 0.12156863 0.22745098
v -0.06137642 0.00000000 1.73299621 0.10196078 0.12156863 0.22745098
v -0.34000000 0.00000000 1.72000000 0.10196078 0.12156863 0.22745098
v -0.08806466 0.10461622 1.66182758 0.10196078 0.12156863 0.22745098
v -0.13124713 0.06465638 1.54667432 0.10196078 0.12156863 0.22745098
v -0.13124713 -0.06465638 1.54667432 0.10196078 0.12156863 0.22745098
v -0.08806466 -0.10461622 1.66182758 0.10196078 0.12156863 0.22745098
f 150 149 152
f 150 152 151
f 152 149 153
f 152 153 151
f 153 149 154
f 153 154 151
f 154 149 155
f 154 155 151
f 155 149 150
f 155 150 151

o CH_Vex_Hood_Ear_L
v 0.00000000 -0.08000000 1.72000000 0.10196078 0.12156863 0.22745098
v 0.05337959 -0.07032837 1.72905976 0.10196078 0.12156863 0.22745098
v -0.02500000 -0.12000000 1.91000000 0.10196078 0.12156863 0.22745098
v -0.01123781 -0.02703613 1.72967163 0.10196078 0.12156863 0.22745098
v -0.05337959 -0.08967163 1.71094024 0.10196078 0.12156863 0.22745098
v 0.01123781 -0.13296387 1.71032837 0.10196078 0.12156863 0.22745098
f 157 156 159
f 157 159 158
f 159 156 160
f 159 160 158
f 160 156 161
f 160 161 158
f 161 156 157
f 161 157 158

o CH_Vex_Hood_Ear_R
v 0.00000000 0.08000000 1.72000000 0.10196078 0.12156863 0.22745098
v 0.05337959 0.07032837 1.72905976 0.10196078 0.12156863 0.22745098
v -0.02500000 0.12000000 1.91000000 0.10196078 0.12156863 0.22745098
v 0.01123781 0.13296387 1.71032837 0.10196078 0.12156863 0.22745098
v -0.05337959 0.08967163 1.71094024 0.10196078 0.12156863 0.22745098
v -0.01123781 0.02703613 1.72967163 0.10196078 0.12156863 0.22745098
f 163 162 165
f 163 165 164
f 165 162 166
f 165 166 164
f 166 162 167
f 166 167 164
f 167 162 163
f 167 163 164

o CH_Vex_UpperArm_L
v 0.00000000 -0.22000000 1.33000000 0.10196078 0.12156863 0.22745098
v -0.04405487 -0.22697055 1.33596491 0.10196078 0.12156863 0.22745098
v -0.07405487 -0.27697055 1.05596491 0.10196078 0.12156863 0.22745098
v -0.03000000 -0.27000000 1.05000000 0.10196078 0.12156863 0.22745098
v -0.02884040 -0.18559211 1.32694578 0.10196078 0.12156863 0.22745098
v -0.05884040 -0.23559211 1.04694578 0.10196078 0.12156863 0.22745098
v 0.01521446 -0.17862156 1.32098087 0.10196078 0.12156863 0.22745098
v -0.01478554 -0.22862156 1.04098087 0.10196078 0.12156863 0.22745098
v 0.04405487 -0.21302945 1.32403509 0.10196078 0.12156863 0.22745098
v 0.01405487 -0.26302945 1.04403509 0.10196078 0.12156863 0.22745098
v 0.02884040 -0.25440789 1.33305422 0.10196078 0.12156863 0.22745098
v -0.00115960 -0.30440789 1.05305422 0.10196078 0.12156863 0.22745098
v -0.01521446 -0.26137844 1.33901913 0.10196078 0.12156863 0.22745098
v -0.04521446 -0.31137844 1.05901913 0.10196078 0.12156863 0.22745098
f 169 168 172
f 169 172 170
f 170 172 173
f 170 173 171
f 172 168 174
f 172 174 173
f 173 174 175
f 173 175 171
f 174 168 176
f 174 176 175
f 175 176 177
f 175 177 171
f 176 168 178
f 176 178 177
f 177 178 179
f 177 179 171
f 178 168 180
f 178 180 179
f 179 180 181
f 179 181 171
f 180 168 169
f 180 169 181
f 181 169 170
f 181 170 171

o CH_Vex_Forearm_L
v -0.03000000 -0.27000000 1.05000000 0.25098039 0.16470588 0.38823529
v -0.06797246 -0.27364791 1.03796735 0.25098039 0.16470588 0.38823529
v 0.00202754 -0.24364791 0.80796735 0.25098039 0.16470588 0.38823529
v 0.04000000 -0.24000000 0.82000000 0.25098039 0.16470588 0.38823529
v -0.05327560 -0.23759501 1.04714286 0.25098039 0.16470588 0.38823529
v 0.01672440 -0.20759501 0.81714286 0.25098039 0.16470588 0.38823529
v -0.01530313 -0.23394709 1.05917551 0.25098039 0.16470588 0.38823529
v 0.05469687 -0.20394709 0.82917551 0.25098039 0.16470588 0.38823529
v 0.00797246 -0.26635209 1.06203265 0.25098039 0.16470588 0.38823529
v 0.07797246 -0.23635209 0.83203265 0.25098039 0.16470588 0.38823529
v -0.00672440 -0.30240499 1.05285714 0.25098039 0.16470588 0.38823529
v 0.06327560 -0.27240499 0.82285714 0.25098039 0.16470588 0.38823529
v -0.04469687 -0.30605291 1.04082449 0.25098039 0.16470588 0.38823529
v 0.02530313 -0.27605291 0.81082449 0.25098039 0.16470588 0.38823529
f 183 182 186
f 183 186 184
f 184 186 187
f 184 187 185
f 186 182 188
f 186 188 187
f 187 188 189
f 187 189 185
f 188 182 190
f 188 190 189
f 189 190 191
f 189 191 185
f 190 182 192
f 190 192 191
f 191 192 193
f 191 193 185
f 192 182 194
f 192 194 193
f 193 194 195
f 193 195 185
f 194 182 183
f 194 183 195
f 195 183 184
f 195 184 185

o CH_Vex_Glove_L
v 0.01108479 -0.20172071 0.82000000 0.12941176 0.13333333 0.15686275
v 0.06891521 -0.20172071 0.82000000 0.12941176 0.13333333 0.15686275
v 0.01108479 -0.27827929 0.82000000 0.12941176 0.13333333 0.15686275
v 0.06891521 -0.27827929 0.82000000 0.12941176 0.13333333 0.15686275
v 0.04000000 -0.26365790 0.86678579 0.12941176 0.13333333 0.15686275
v 0.04000000 -0.21634210 0.86678579 0.12941176 0.13333333 0.15686275
v 0.04000000 -0.26365790 0.77321421 0.12941176 0.13333333 0.15686275
v 0.04000000 -0.21634210 0.77321421 0.12941176 0.13333333 0.15686275
v 0.08678579 -0.24000000 0.79108479 0.12941176 0.13333333 0.15686275
v 0.08678579 -0.24000000 0.84891521 0.12941176 0.13333333 0.15686275
v -0.00678579 -0.24000000 0.79108479 0.12941176 0.13333333 0.15686275
v -0.00678579 -0.24000000 0.84891521 0.12941176 0.13333333 0.15686275
v 0.04000000 -0.19500000 0.82000000 0.12941176 0.13333333 0.15686275
v 0.04000000 -0.28500000 0.82000000 0.12941176 0.13333333 0.15686275
v 0.02300407 -0.27640576 0.84750000 0.12941176 0.13333333 0.15686275
v 0.05699593 -0.27640576 0.84750000 0.12941176 0.13333333 0.15686275
v 0.02300407 -0.20359424 0.84750000 0.12941176 0.13333333 0.15686275
v 0.05699593 -0.20359424 0.84750000 0.12941176 0.13333333 0.15686275
v 0.04000000 -0.24000000 0.87500000 0.12941176 0.13333333 0.15686275
v 0.02300407 -0.27640576 0.79250000 0.12941176 0.13333333 0.15686275
v 0.05699593 -0.27640576 0.79250000 0.12941176 0.13333333 0.15686275
v 0.02300407 -0.20359424 0.79250000 0.12941176 0.13333333 0.15686275
v 0.05699593 -0.20359424 0.79250000 0.12941176 0.13333333 0.15686275
v 0.04000000 -0.24000000 0.76500000 0.12941176 0.13333333 0.15686275
v 0.08449593 -0.21750000 0.80300407 0.12941176 0.13333333 0.15686275
v 0.08449593 -0.26250000 0.80300407 0.12941176 0.13333333 0.15686275
v 0.06750000 -0.25390576 0.77550407 0.12941176 0.13333333 0.15686275
v 0.06750000 -0.22609424 0.77550407 0.12941176 0.13333333 0.15686275
v 0.08449593 -0.21750000 0.83699593 0.12941176 0.13333333 0.15686275
v 0.08449593 -0.26250000 0.83699593 0.12941176 0.13333333 0.15686275
v 0.06750000 -0.25390576 0.86449593 0.12941176 0.13333333 0.15686275
v 0.06750000 -0.22609424 0.86449593 0.12941176 0.13333333 0.15686275
v 0.09500000 -0.24000000 0.82000000 0.12941176 0.13333333 0.15686275
v -0.00449593 -0.21750000 0.80300407 0.12941176 0.13333333 0.15686275
v -0.00449593 -0.26250000 0.80300407 0.12941176 0.13333333 0.15686275
v 0.01250000 -0.25390576 0.77550407 0.12941176 0.13333333 0.15686275
v 0.01250000 -0.22609424 0.77550407 0.12941176 0.13333333 0.15686275
v -0.00449593 -0.21750000 0.83699593 0.12941176 0.13333333 0.15686275
v -0.00449593 -0.26250000 0.83699593 0.12941176 0.13333333 0.15686275
v 0.01250000 -0.25390576 0.86449593 0.12941176 0.13333333 0.15686275
v 0.01250000 -0.22609424 0.86449593 0.12941176 0.13333333 0.15686275
v -0.01500000 -0.24000000 0.82000000 0.12941176 0.13333333 0.15686275
f 196 233 212
f 233 207 236
f 212 236 201
f 233 236 212
f 196 212 208
f 212 201 213
f 208 213 197
f 212 213 208
f 196 208 217
f 208 197 218
f 217 218 203
f 208 218 217
f 196 217 229
f 217 203 232
f 229 232 206
f 217 232 229
f 196 229 233
f 229 206 237
f 233 237 207
f 229 237 233
f 197 213 224
f 213 201 227
f 224 227 205
f 213 227 224
f 201 236 214
f 236 207 235
f 214 235 200
f 236 235 214
f 207 237 234
f 237 206 230
f 234 230 198
f 237 230 234
f 206 232 231
f 232 203 219
f 231 219 202
f 232 219 231
f 203 218 223
f 218 197 220
f 223 220 204
f 218 220 223
f 199 225 211
f 225 205 226
f 211 226 200
f 225 226 211
f 199 211 209
f 211 200 210
f 209 210 198
f 211 210 209
f 199 209 216
f 209 198 215
f 216 215 202
f 209 215 216
f 199 216 221
f 216 202 222
f 221 222 204
f 216 222 221
f 199 221 225
f 221 204 228
f 225 228 205
f 221 228 225
f 200 226 214
f 226 205 227
f 214 227 201
f 226 227 214
f 198 210 234
f 210 200 235
f 234 235 207
f 210 235 234
f 202 215 231
f 215 198 230
f 231 230 206
f 215 230 231
f 204 222 223
f 222 202 219
f 223 219 203
f 222 219 223
f 205 228 224
f 228 204 220
f 224 220 197
f 228 220 224

o CH_Vex_UpperArm_R
v 0.00000000 0.22000000 1.33000000 0.10196078 0.12156863 0.22745098
v -0.04405487 0.22697055 1.33596491 0.10196078 0.12156863 0.22745098
v -0.07405487 0.27697055 1.05596491 0.10196078 0.12156863 0.22745098
v -0.03000000 0.27000000 1.05000000 0.10196078 0.12156863 0.22745098
v -0.01521446 0.26137844 1.33901913 0.10196078 0.12156863 0.22745098
v -0.04521446 0.31137844 1.05901913 0.10196078 0.12156863 0.22745098
v 0.02884040 0.25440789 1.33305422 0.10196078 0.12156863 0.22745098
v -0.00115960 0.30440789 1.05305422 0.10196078 0.12156863 0.22745098
v 0.04405487 0.21302945 1.32403509 0.10196078 0.12156863 0.22745098
v 0.01405487 0.26302945 1.04403509 0.10196078 0.12156863 0.22745098
v 0.01521446 0.17862156 1.32098087 0.10196078 0.12156863 0.22745098
v -0.01478554 0.22862156 1.04098087 0.10196078 0.12156863 0.22745098
v -0.02884040 0.18559211 1.32694578 0.10196078 0.12156863 0.22745098
v -0.05884040 0.23559211 1.04694578 0.10196078 0.12156863 0.22745098
f 239 238 242
f 239 242 240
f 240 242 243
f 240 243 241
f 242 238 244
f 242 244 243
f 243 244 245
f 243 245 241
f 244 238 246
f 244 246 245
f 245 246 247
f 245 247 241
f 246 238 248
f 246 248 247
f 247 248 249
f 247 249 241
f 248 238 250
f 248 250 249
f 249 250 251
f 249 251 241
f 250 238 239
f 250 239 251
f 251 239 240
f 251 240 241

o CH_Vex_Forearm_R
v -0.03000000 0.27000000 1.05000000 0.25098039 0.16470588 0.38823529
v -0.06797246 0.27364791 1.03796735 0.25098039 0.16470588 0.38823529
v 0.00202754 0.24364791 0.80796735 0.25098039 0.16470588 0.38823529
v 0.04000000 0.24000000 0.82000000 0.25098039 0.16470588 0.38823529
v -0.04469687 0.30605291 1.04082449 0.25098039 0.16470588 0.38823529
v 0.02530313 0.27605291 0.81082449 0.25098039 0.16470588 0.38823529
v -0.00672440 0.30240499 1.05285714 0.25098039 0.16470588 0.38823529
v 0.06327560 0.27240499 0.82285714 0.25098039 0.16470588 0.38823529
v 0.00797246 0.26635209 1.06203265 0.25098039 0.16470588 0.38823529
v 0.07797246 0.23635209 0.83203265 0.25098039 0.16470588 0.38823529
v -0.01530313 0.23394709 1.05917551 0.25098039 0.16470588 0.38823529
v 0.05469687 0.20394709 0.82917551 0.25098039 0.16470588 0.38823529
v -0.05327560 0.23759501 1.04714286 0.25098039 0.16470588 0.38823529
v 0.01672440 0.20759501 0.81714286 0.25098039 0.16470588 0.38823529
f 253 252 256
f 253 256 254
f 254 256 257
f 254 257 255
f 256 252 258
f 256 258 257
f 257 258 259
f 257 259 255
f 258 252 260
f 258 260 259
f 259 260 261
f 259 261 255
f 260 252 262
f 260 262 261
f 261 262 263
f 261 263 255
f 262 252 264
f 262 264 263
f 263 264 265
f 263 265 255
f 264 252 253
f 264 253 265
f 265 253 254
f 265 254 255

o CH_Vex_Glove_R
v 0.01108479 0.27827929 0.82000000 0.12941176 0.13333333 0.15686275
v 0.06891521 0.27827929 0.82000000 0.12941176 0.13333333 0.15686275
v 0.01108479 0.20172071 0.82000000 0.12941176 0.13333333 0.15686275
v 0.06891521 0.20172071 0.82000000 0.12941176 0.13333333 0.15686275
v 0.04000000 0.21634210 0.86678579 0.12941176 0.13333333 0.15686275
v 0.04000000 0.26365790 0.86678579 0.12941176 0.13333333 0.15686275
v 0.04000000 0.21634210 0.77321421 0.12941176 0.13333333 0.15686275
v 0.04000000 0.26365790 0.77321421 0.12941176 0.13333333 0.15686275
v 0.08678579 0.24000000 0.79108479 0.12941176 0.13333333 0.15686275
v 0.08678579 0.24000000 0.84891521 0.12941176 0.13333333 0.15686275
v -0.00678579 0.24000000 0.79108479 0.12941176 0.13333333 0.15686275
v -0.00678579 0.24000000 0.84891521 0.12941176 0.13333333 0.15686275
v 0.04000000 0.28500000 0.82000000 0.12941176 0.13333333 0.15686275
v 0.04000000 0.19500000 0.82000000 0.12941176 0.13333333 0.15686275
v 0.02300407 0.20359424 0.84750000 0.12941176 0.13333333 0.15686275
v 0.05699593 0.20359424 0.84750000 0.12941176 0.13333333 0.15686275
v 0.02300407 0.27640576 0.84750000 0.12941176 0.13333333 0.15686275
v 0.05699593 0.27640576 0.84750000 0.12941176 0.13333333 0.15686275
v 0.04000000 0.24000000 0.87500000 0.12941176 0.13333333 0.15686275
v 0.02300407 0.20359424 0.79250000 0.12941176 0.13333333 0.15686275
v 0.05699593 0.20359424 0.79250000 0.12941176 0.13333333 0.15686275
v 0.02300407 0.27640576 0.79250000 0.12941176 0.13333333 0.15686275
v 0.05699593 0.27640576 0.79250000 0.12941176 0.13333333 0.15686275
v 0.04000000 0.24000000 0.76500000 0.12941176 0.13333333 0.15686275
v 0.08449593 0.26250000 0.80300407 0.12941176 0.13333333 0.15686275
v 0.08449593 0.21750000 0.80300407 0.12941176 0.13333333 0.15686275
v 0.06750000 0.22609424 0.77550407 0.12941176 0.13333333 0.15686275
v 0.06750000 0.25390576 0.77550407 0.12941176 0.13333333 0.15686275
v 0.08449593 0.26250000 0.83699593 0.12941176 0.13333333 0.15686275
v 0.08449593 0.21750000 0.83699593 0.12941176 0.13333333 0.15686275
v 0.06750000 0.22609424 0.86449593 0.12941176 0.13333333 0.15686275
v 0.06750000 0.25390576 0.86449593 0.12941176 0.13333333 0.15686275
v 0.09500000 0.24000000 0.82000000 0.12941176 0.13333333 0.15686275
v -0.00449593 0.26250000 0.80300407 0.12941176 0.13333333 0.15686275
v -0.00449593 0.21750000 0.80300407 0.12941176 0.13333333 0.15686275
v 0.01250000 0.22609424 0.77550407 0.12941176 0.13333333 0.15686275
v 0.01250000 0.25390576 0.77550407 0.12941176 0.13333333 0.15686275
v -0.00449593 0.26250000 0.83699593 0.12941176 0.13333333 0.15686275
v -0.00449593 0.21750000 0.83699593 0.12941176 0.13333333 0.15686275
v 0.01250000 0.22609424 0.86449593 0.12941176 0.13333333 0.15686275
v 0.01250000 0.25390576 0.86449593 0.12941176 0.13333333 0.15686275
v -0.01500000 0.24000000 0.82000000 0.12941176 0.13333333 0.15686275
f 266 303 282
f 303 277 306
f 282 306 271
f 303 306 282
f 266 282 278
f 282 271 283
f 278 283 267
f 282 283 278
f 266 278 287
f 278 267 288
f 287 288 273
f 278 288 287
f 266 287 299
f 287 273 302
f 299 302 276
f 287 302 299
f 266 299 303
f 299 276 307
f 303 307 277
f 299 307 303
f 267 283 294
f 283 271 297
f 294 297 275
f 283 297 294
f 271 306 284
f 306 277 305
f 284 305 270
f 306 305 284
f 277 307 304
f 307 276 300
f 304 300 268
f 307 300 304
f 276 302 301
f 302 273 289
f 301 289 272
f 302 289 301
f 273 288 293
f 288 267 290
f 293 290 274
f 288 290 293
f 269 295 281
f 295 275 296
f 281 296 270
f 295 296 281
f 269 281 279
f 281 270 280
f 279 280 268
f 281 280 279
f 269 279 286
f 279 268 285
f 286 285 272
f 279 285 286
f 269 286 291
f 286 272 292
f 291 292 274
f 286 292 291
f 269 291 295
f 291 274 298
f 295 298 275
f 291 298 295
f 270 296 284
f 296 275 297
f 284 297 271
f 296 297 284
f 268 280 304
f 280 270 305
f 304 305 277
f 280 305 304
f 272 285 301
f 285 268 300
f 301 300 276
f 285 300 301
f 274 292 293
f 292 272 289
f 293 289 273
f 292 289 293
f 275 298 294
f 298 274 290
f 294 290 267
f 298 290 294

o CH_Vex_UpperLeg_L
v -0.00000000 -0.09500000 0.78000000 0.25098039 0.16470588 0.38823529
v -0.05491042 -0.09500000 0.77686226 0.25098039 0.16470588 0.38823529
v -0.03491042 -0.09500000 0.42686226 0.25098039 0.16470588 0.38823529
v 0.02000000 -0.09500000 0.43000000 0.25098039 0.16470588 0.38823529
v -0.02745521 -0.04736860 0.77843113 0.25098039 0.16470588 0.38823529
v -0.00745521 -0.04736860 0.42843113 0.25098039 0.16470588 0.38823529
v 0.02745521 -0.04736860 0.78156887 0.25098039 0.16470588 0.38823529
v 0.04745521 -0.04736860 0.43156887 0.25098039 0.16470588 0.38823529
v 0.05491042 -0.09500000 0.78313774 0.25098039 0.16470588 0.38823529
v 0.07491042 -0.09500000 0.43313774 0.25098039 0.16470588 0.38823529
v 0.02745521 -0.14263140 0.78156887 0.25098039 0.16470588 0.38823529
v 0.04745521 -0.14263140 0.43156887 0.25098039 0.16470588 0.38823529
v -0.02745521 -0.14263140 0.77843113 0.25098039 0.16470588 0.38823529
v -0.00745521 -0.14263140 0.42843113 0.25098039 0.16470588 0.38823529
f 309 308 312
f 309 312 310
f 310 312 313
f 310 313 311
f 312 308 314
f 312 314 313
f 313 314 315
f 313 315 311
f 314 308 316
f 314 316 315
f 315 316 317
f 315 317 311
f 316 308 318
f 316 318 317
f 317 318 319
f 317 319 311
f 318 308 320
f 318 320 319
f 319 320 321
f 319 321 311
f 320 308 309
f 320 309 321
f 321 309 310
f 321 310 311

o CH_Vex_LowerLeg_L
v 0.02000000 -0.09500000 0.43000000 0.10196078 0.12156863 0.22745098
v -0.02786885 -0.09500000 0.43354584 0.10196078 0.12156863 0.22745098
v -0.04786885 -0.09500000 0.16354584 0.10196078 0.12156863 0.22745098
v -0.00000000 -0.09500000 0.16000000 0.10196078 0.12156863 0.22745098
v -0.00393443 -0.05343078 0.43177292 0.10196078 0.12156863 0.22745098
v -0.02393443 -0.05343078 0.16177292 0.10196078 0.12156863 0.22745098
v 0.04393443 -0.05343078 0.42822708 0.10196078 0.12156863 0.22745098
v 0.02393443 -0.05343078 0.15822708 0.10196078 0.12156863 0.22745098
v 0.06786885 -0.09500000 0.42645416 0.10196078 0.12156863 0.22745098
v 0.04786885 -0.09500000 0.15645416 0.10196078 0.12156863 0.22745098
v 0.04393443 -0.13656922 0.42822708 0.10196078 0.12156863 0.22745098
v 0.02393443 -0.13656922 0.15822708 0.10196078 0.12156863 0.22745098
v -0.00393443 -0.13656922 0.43177292 0.10196078 0.12156863 0.22745098
v -0.02393443 -0.13656922 0.16177292 0.10196078 0.12156863 0.22745098
f 323 322 326
f 323 326 324
f 324 326 327
f 324 327 325
f 326 322 328
f 326 328 327
f 327 328 329
f 327 329 325
f 328 322 330
f 328 330 329
f 329 330 331
f 329 331 325
f 330 322 332
f 330 332 331
f 331 332 333
f 331 333 325
f 332 322 334
f 332 334 333
f 333 334 335
f 333 335 325
f 334 322 323
f 334 323 335
f 335 323 324
f 335 324 325

o CH_Vex_Shoe_L
v -0.07500000 -0.15000000 0.00250000 0.12941176 0.13333333 0.15686275
v -0.07500000 -0.15000000 0.10750000 0.12941176 0.13333333 0.15686275
v -0.07500000 -0.04000000 0.00250000 0.12941176 0.13333333 0.15686275
v -0.07500000 -0.04000000 0.10750000 0.12941176 0.13333333 0.15686275
v 0.22500000 -0.15000000 0.00250000 0.12941176 0.13333333 0.15686275
v 0.22500000 -0.15000000 0.10750000 0.12941176 0.13333333 0.15686275
v 0.22500000 -0.04000000 0.00250000 0.12941176 0.13333333 0.15686275
v 0.22500000 -0.04000000 0.10750000 0.12941176 0.13333333 0.15686275
f 337 339 336
f 340 337 336
f 336 339 338
f 338 340 336
f 337 343 339
f 341 337 340
f 341 343 337
f 339 343 338
f 342 340 338
f 338 343 342
f 342 341 340
f 343 341 342

o CH_Vex_Sole_L
v -0.07000000 -0.15250000 0.00250000 0.34509804 0.39215686 0.45490196
v -0.07000000 -0.15250000 0.02750000 0.34509804 0.39215686 0.45490196
v -0.07000000 -0.03750000 0.00250000 0.34509804 0.39215686 0.45490196
v -0.07000000 -0.03750000 0.02750000 0.34509804 0.39215686 0.45490196
v 0.24000000 -0.15250000 0.00250000 0.34509804 0.39215686 0.45490196
v 0.24000000 -0.15250000 0.02750000 0.34509804 0.39215686 0.45490196
v 0.24000000 -0.03750000 0.00250000 0.34509804 0.39215686 0.45490196
v 0.24000000 -0.03750000 0.02750000 0.34509804 0.39215686 0.45490196
f 345 347 344
f 348 345 344
f 344 347 346
f 346 348 344
f 345 351 347
f 349 345 348
f 349 351 345
f 347 351 346
f 350 348 346
f 346 351 350
f 350 349 348
f 351 349 350

o CH_Vex_UpperLeg_R
v -0.00000000 0.09500000 0.78000000 0.25098039 0.16470588 0.38823529
v -0.05491042 0.09500000 0.77686226 0.25098039 0.16470588 0.38823529
v -0.03491042 0.09500000 0.42686226 0.25098039 0.16470588 0.38823529
v 0.02000000 0.09500000 0.43000000 0.25098039 0.16470588 0.38823529
v -0.02745521 0.14263140 0.77843113 0.25098039 0.16470588 0.38823529
v -0.00745521 0.14263140 0.42843113 0.25098039 0.16470588 0.38823529
v 0.02745521 0.14263140 0.78156887 0.25098039 0.16470588 0.38823529
v 0.04745521 0.14263140 0.43156887 0.25098039 0.16470588 0.38823529
v 0.05491042 0.09500000 0.78313774 0.25098039 0.16470588 0.38823529
v 0.07491042 0.09500000 0.43313774 0.25098039 0.16470588 0.38823529
v 0.02745521 0.04736860 0.78156887 0.25098039 0.16470588 0.38823529
v 0.04745521 0.04736860 0.43156887 0.25098039 0.16470588 0.38823529
v -0.02745521 0.04736860 0.77843113 0.25098039 0.16470588 0.38823529
v -0.00745521 0.04736860 0.42843113 0.25098039 0.16470588 0.38823529
f 353 352 356
f 353 356 354
f 354 356 357
f 354 357 355
f 356 352 358
f 356 358 357
f 357 358 359
f 357 359 355
f 358 352 360
f 358 360 359
f 359 360 361
f 359 361 355
f 360 352 362
f 360 362 361
f 361 362 363
f 361 363 355
f 362 352 364
f 362 364 363
f 363 364 365
f 363 365 355
f 364 352 353
f 364 353 365
f 365 353 354
f 365 354 355

o CH_Vex_LowerLeg_R
v 0.02000000 0.09500000 0.43000000 0.10196078 0.12156863 0.22745098
v -0.02786885 0.09500000 0.43354584 0.10196078 0.12156863 0.22745098
v -0.04786885 0.09500000 0.16354584 0.10196078 0.12156863 0.22745098
v -0.00000000 0.09500000 0.16000000 0.10196078 0.12156863 0.22745098
v -0.00393443 0.13656922 0.43177292 0.10196078 0.12156863 0.22745098
v -0.02393443 0.13656922 0.16177292 0.10196078 0.12156863 0.22745098
v 0.04393443 0.13656922 0.42822708 0.10196078 0.12156863 0.22745098
v 0.02393443 0.13656922 0.15822708 0.10196078 0.12156863 0.22745098
v 0.06786885 0.09500000 0.42645416 0.10196078 0.12156863 0.22745098
v 0.04786885 0.09500000 0.15645416 0.10196078 0.12156863 0.22745098
v 0.04393443 0.05343078 0.42822708 0.10196078 0.12156863 0.22745098
v 0.02393443 0.05343078 0.15822708 0.10196078 0.12156863 0.22745098
v -0.00393443 0.05343078 0.43177292 0.10196078 0.12156863 0.22745098
v -0.02393443 0.05343078 0.16177292 0.10196078 0.12156863 0.22745098
f 367 366 370
f 367 370 368
f 368 370 371
f 368 371 369
f 370 366 372
f 370 372 371
f 371 372 373
f 371 373 369
f 372 366 374
f 372 374 373
f 373 374 375
f 373 375 369
f 374 366 376
f 374 376 375
f 375 376 377
f 375 377 369
f 376 366 378
f 376 378 377
f 377 378 379
f 377 379 369
f 378 366 367
f 378 367 379
f 379 367 368
f 379 368 369

o CH_Vex_Shoe_R
v -0.07500000 0.04000000 0.00250000 0.12941176 0.13333333 0.15686275
v -0.07500000 0.04000000 0.10750000 0.12941176 0.13333333 0.15686275
v -0.07500000 0.15000000 0.00250000 0.12941176 0.13333333 0.15686275
v -0.07500000 0.15000000 0.10750000 0.12941176 0.13333333 0.15686275
v 0.22500000 0.04000000 0.00250000 0.12941176 0.13333333 0.15686275
v 0.22500000 0.04000000 0.10750000 0.12941176 0.13333333 0.15686275
v 0.22500000 0.15000000 0.00250000 0.12941176 0.13333333 0.15686275
v 0.22500000 0.15000000 0.10750000 0.12941176 0.13333333 0.15686275
f 381 383 380
f 384 381 380
f 380 383 382
f 382 384 380
f 381 387 383
f 385 381 384
f 385 387 381
f 383 387 382
f 386 384 382
f 382 387 386
f 386 385 384
f 387 385 386

o CH_Vex_Sole_R
v -0.07000000 0.03750000 0.00250000 0.34509804 0.39215686 0.45490196
v -0.07000000 0.03750000 0.02750000 0.34509804 0.39215686 0.45490196
v -0.07000000 0.15250000 0.00250000 0.34509804 0.39215686 0.45490196
v -0.07000000 0.15250000 0.02750000 0.34509804 0.39215686 0.45490196
v 0.24000000 0.03750000 0.00250000 0.34509804 0.39215686 0.45490196
v 0.24000000 0.03750000 0.02750000 0.34509804 0.39215686 0.45490196
v 0.24000000 0.15250000 0.00250000 0.34509804 0.39215686 0.45490196
v 0.24000000 0.15250000 0.02750000 0.34509804 0.39215686 0.45490196
f 389 391 388
f 392 389 388
f 388 391 390
f 390 392 388
f 389 395 391
f 393 389 392
f 393 395 389
f 391 395 390
f 394 392 390
f 390 395 394
f 394 393 392
f 395 393 394

o CH_Vex_Diagonal_Strap_CameraSide
v 0.11178284 -0.27250000 1.41582691 0.85490196 0.67058824 0.29411765
v -0.05821716 -0.27250000 0.93582691 0.85490196 0.67058824 0.29411765
v 0.11178284 -0.23750000 1.41582691 0.85490196 0.67058824 0.29411765
v -0.05821716 -0.23750000 0.93582691 0.85490196 0.67058824 0.29411765
v 0.08821716 -0.27250000 1.42417309 0.85490196 0.67058824 0.29411765
v -0.08178284 -0.27250000 0.94417309 0.85490196 0.67058824 0.29411765
v 0.08821716 -0.23750000 1.42417309 0.85490196 0.67058824 0.29411765
v -0.08178284 -0.23750000 0.94417309 0.85490196 0.67058824 0.29411765
f 397 399 396
f 400 397 396
f 396 399 398
f 398 400 396
f 397 403 399
f 401 397 400
f 401 403 397
f 399 403 398
f 402 400 398
f 398 403 402
f 402 401 400
f 403 401 402

o CH_Vex_Diagonal_Strap_FarSide
v 0.10848365 0.24250000 1.41699538 0.85490196 0.67058824 0.29411765
v -0.06151635 0.24250000 0.93699538 0.85490196 0.67058824 0.29411765
v 0.10848365 0.26750000 1.41699538 0.85490196 0.67058824 0.29411765
v -0.06151635 0.26750000 0.93699538 0.85490196 0.67058824 0.29411765
v 0.09151635 0.24250000 1.42300462 0.85490196 0.67058824 0.29411765
v -0.07848365 0.24250000 0.94300462 0.85490196 0.67058824 0.29411765
v 0.09151635 0.26750000 1.42300462 0.85490196 0.67058824 0.29411765
v -0.07848365 0.26750000 0.94300462 0.85490196 0.67058824 0.29411765
f 405 407 404
f 408 405 404
f 404 407 406
f 406 408 404
f 405 411 407
f 409 405 408
f 409 411 405
f 407 411 406
f 410 408 406
f 406 411 410
f 410 409 408
f 411 409 410

o CH_Vex_Satchel_CameraSide
v -0.11500000 -0.31000000 0.72000000 0.36470588 0.23529412 0.14509804
v -0.11500000 -0.31000000 0.92000000 0.36470588 0.23529412 0.14509804
v -0.11500000 -0.24000000 0.72000000 0.36470588 0.23529412 0.14509804
v -0.11500000 -0.24000000 0.92000000 0.36470588 0.23529412 0.14509804
v 0.03500000 -0.31000000 0.72000000 0.36470588 0.23529412 0.14509804
v 0.03500000 -0.31000000 0.92000000 0.36470588 0.23529412 0.14509804
v 0.03500000 -0.24000000 0.72000000 0.36470588 0.23529412 0.14509804
v 0.03500000 -0.24000000 0.92000000 0.36470588 0.23529412 0.14509804
f 413 415 412
f 416 413 412
f 412 415 414
f 414 416 412
f 413 419 415
f 417 413 416
f 417 419 413
f 415 419 414
f 418 416 414
f 414 419 418
f 418 417 416
f 419 417 418

o CH_Vex_Satchel_Flap
v -0.11250000 -0.35250000 0.88750000 0.85490196 0.67058824 0.29411765
v -0.11250000 -0.35250000 0.93250000 0.85490196 0.67058824 0.29411765
v -0.11250000 -0.27750000 0.88750000 0.85490196 0.67058824 0.29411765
v -0.11250000 -0.27750000 0.93250000 0.85490196 0.67058824 0.29411765
v 0.04250000 -0.35250000 0.88750000 0.85490196 0.67058824 0.29411765
v 0.04250000 -0.35250000 0.93250000 0.85490196 0.67058824 0.29411765
v 0.04250000 -0.27750000 0.88750000 0.85490196 0.67058824 0.29411765
v 0.04250000 -0.27750000 0.93250000 0.85490196 0.67058824 0.29411765
f 421 423 420
f 424 421 420
f 420 423 422
f 422 424 420
f 421 427 423
f 425 421 424
f 425 427 421
f 423 427 422
f 426 424 422
f 422 427 426
f 426 425 424
f 427 425 426

o CH_Vex_GemClasp_Chest
v 0.10500000 -0.27500000 1.21250000 0.26274510 0.87450980 1.00000000
v 0.15000000 -0.27500000 1.18000000 0.26274510 0.87450980 1.00000000
v 0.10500000 -0.23000000 1.18000000 0.26274510 0.87450980 1.00000000
v 0.06000000 -0.27500000 1.18000000 0.26274510 0.87450980 1.00000000
v 0.10500000 -0.32000000 1.18000000 0.26274510 0.87450980 1.00000000
v 0.10500000 -0.27500000 1.14750000 0.26274510 0.87450980 1.00000000
f 428 429 430
f 428 430 431
f 428 431 432
f 428 432 429
f 433 430 429
f 433 431 430
f 433 432 431
f 433 429 432

o CH_Vex_GemClasp_Belt
v 0.08000000 -0.23500000 0.96250000 0.26274510 0.87450980 1.00000000
v 0.11500000 -0.23500000 0.94000000 0.26274510 0.87450980 1.00000000
v 0.08000000 -0.20000000 0.94000000 0.26274510 0.87450980 1.00000000
v 0.04500000 -0.23500000 0.94000000 0.26274510 0.87450980 1.00000000
v 0.08000000 -0.27000000 0.94000000 0.26274510 0.87450980 1.00000000
v 0.08000000 -0.23500000 0.91750000 0.26274510 0.87450980 1.00000000
f 434 435 436
f 434 436 437
f 434 437 438
f 434 438 435
f 439 436 435
f 439 437 436
f 439 438 437
f 439 435 438

o CH_Vex_Scarf_Segment_01
v -0.07375050 -0.11695690 1.41154310 0.10980392 0.74509804 0.70980392
v -0.24375050 -0.14695690 1.38154310 0.10980392 0.74509804 0.70980392
v -0.08316755 -0.06277527 1.41072473 0.10980392 0.74509804 0.70980392
v -0.25316755 -0.09277527 1.38072473 0.10980392 0.74509804 0.70980392
v -0.07683245 -0.11722473 1.42927527 0.10980392 0.74509804 0.70980392
v -0.24683245 -0.14722473 1.39927527 0.10980392 0.74509804 0.70980392
v -0.08624950 -0.06304310 1.42845690 0.10980392 0.74509804 0.70980392
v -0.25624950 -0.09304310 1.39845690 0.10980392 0.74509804 0.70980392
f 441 443 440
f 444 441 440
f 440 443 442
f 442 444 440
f 441 447 443
f 445 441 444
f 445 447 441
f 443 447 442
f 446 444 442
f 442 447 446
f 446 445 444
f 447 445 446

o CH_Vex_Scarf_Segment_02
v -0.24547548 -0.14437883 1.38184822 0.10980392 0.74509804 0.70980392
v -0.42547548 -0.15437883 1.31184822 0.10980392 0.74509804 0.70980392
v -0.24800921 -0.09544668 1.38137322 0.10980392 0.74509804 0.70980392
v -0.42800921 -0.10544668 1.31137322 0.10980392 0.74509804 0.70980392
v -0.25199079 -0.14455332 1.39862678 0.10980392 0.74509804 0.70980392
v -0.43199079 -0.15455332 1.32862678 0.10980392 0.74509804 0.70980392
v -0.25452452 -0.09562117 1.39815178 0.10980392 0.74509804 0.70980392
v -0.43452452 -0.10562117 1.32815178 0.10980392 0.74509804 0.70980392
f 449 451 448
f 452 449 448
f 448 451 450
f 450 452 448
f 449 455 451
f 453 449 452
f 453 455 449
f 451 455 450
f 454 452 450
f 450 455 454
f 454 453 452
f 455 453 454

o CH_Vex_Scarf_Segment_03
v -0.42718136 -0.15158311 1.31166484 0.10980392 0.74509804 0.70980392
v -0.58718136 -0.14158311 1.23166484 0.10980392 0.74509804 0.70980392
v -0.42478134 -0.10865387 1.31223094 0.10980392 0.74509804 0.70980392
v -0.58478134 -0.09865387 1.23223094 0.10980392 0.74509804 0.70980392
v -0.43521866 -0.15134613 1.32776906 0.10980392 0.74509804 0.70980392
v -0.59521866 -0.14134613 1.24776906 0.10980392 0.74509804 0.70980392
v -0.43281864 -0.10841689 1.32833516 0.10980392 0.74509804 0.70980392
v -0.59281864 -0.09841689 1.24833516 0.10980392 0.74509804 0.70980392
f 457 459 456
f 460 457 456
f 456 459 458
f 458 460 456
f 457 463 459
f 461 457 460
f 461 463 457
f 459 463 458
f 462 460 458
f 458 463 462
f 462 461 460
f 463 461 462

o CH_Vex_Scarf_Segment_04
v -0.58835232 -0.13861066 1.23138730 0.10980392 0.74509804 0.70980392
v -0.72835232 -0.11861066 1.16138730 0.10980392 0.74509804 0.70980392
v -0.58366276 -0.10192561 1.23248963 0.10980392 0.74509804 0.70980392
v -0.72366276 -0.08192561 1.16248963 0.10980392 0.74509804 0.70980392
v -0.59633724 -0.13807439 1.24751037 0.10980392 0.74509804 0.70980392
v -0.73633724 -0.11807439 1.17751037 0.10980392 0.74509804 0.70980392
v -0.59164768 -0.10138934 1.24861270 0.10980392 0.74509804 0.70980392
v -0.73164768 -0.08138934 1.17861270 0.10980392 0.74509804 0.70980392
f 465 467 464
f 468 465 464
f 464 467 466
f 466 468 464
f 465 471 467
f 469 465 468
f 469 471 465
f 467 471 466
f 470 468 466
f 466 471 470
f 470 469 468
f 471 469 470

o CH_Vex_Scarf_Segment_05
v -0.72741295 -0.11573130 1.16180956 0.10980392 0.74509804 0.70980392
v -0.82741295 -0.09573130 1.09180956 0.10980392 0.74509804 0.70980392
v -0.72240055 -0.08517945 1.16337809 0.10980392 0.74509804 0.70980392
v -0.82240055 -0.06517945 1.09337809 0.10980392 0.74509804 0.70980392
v -0.73759945 -0.11482055 1.17662191 0.10980392 0.74509804 0.70980392
v -0.83759945 -0.09482055 1.10662191 0.10980392 0.74509804 0.70980392
v -0.73258705 -0.08426870 1.17819044 0.10980392 0.74509804 0.70980392
v -0.83258705 -0.06426870 1.10819044 0.10980392 0.74509804 0.70980392
f 473 475 472
f 476 473 472
f 472 475 474
f 474 476 472
f 473 479 475
f 477 473 476
f 477 479 473
f 475 479 474
f 478 476 474
f 474 479 478
f 478 477 476
f 479 477 478

o CH_Vex_Ground_Reference_DeleteMe
v -0.60000000 0.37000000 0.00000000 0.34509804 0.39215686 0.45490196
v -0.60000000 0.37000000 0.01000000 0.34509804 0.39215686 0.45490196
v -0.60000000 0.39000000 0.00000000 0.34509804 0.39215686 0.45490196
v -0.60000000 0.39000000 0.01000000 0.34509804 0.39215686 0.45490196
v 0.60000000 0.37000000 0.00000000 0.34509804 0.39215686 0.45490196
v 0.60000000 0.37000000 0.01000000 0.34509804 0.39215686 0.45490196
v 0.60000000 0.39000000 0.00000000 0.34509804 0.39215686 0.45490196
v 0.60000000 0.39000000 0.01000000 0.34509804 0.39215686 0.45490196
f 481 483 480
f 484 481 480
f 480 483 482
f 482 484 480
f 481 487 483
f 485 481 484
f 485 487 481
f 483 487 482
f 486 484 482
f 482 487 486
f 486 485 484
f 487 485 486

